#!OML:ASF E:\motion texture\Top Level 1\Subject 1\Session 1\male.ASF
:FULLY-SPECIFIED
:DEGREES
383
root -7.05027 17.924 3.77773 479.512 -82.9227 -474.137
lowerback -4.54226 3.31034 7.95332
upperback -3.34408 4.00567 2.32661
thorax -0.544363 1.84315 -1.8619
lowerneck -7.76263 -3.57433 -6.97505
upperneck -24.0578 -4.07546 10.7363
head -5.57779 -2.53068 4.7832
rclavicle -4.19436e-014 -1.35174e-014
rhumerus 45.708 16.1894 -54.7154
rradius 82.1332
rwrist 2.76049
rhand -22.6091 -33.9477
rfingers 7.12502
rthumb 3.82056 -423.893
lclavicle -4.19436e-014 -1.35174e-014
lhumerus -33.9479 12.656 84.587
lradius 38.6806
lwrist -21.3259
lhand -12.8839 23.4851
lfingers 7.12502
lthumb 13.2051 53.0469
rfemur -2.50601 1.6688 27.4396
rtibia 36.5606
rfoot -4.76931 1.16982
rtoes 6.61865
lfemur -24.1719 -2.32896 -11.1833
ltibia 16.1512
lfoot -0.502554 5.63165
ltoes -0.78943
384
root -7.19151 17.9241 3.7952 481.03 -83.116 -475.812
lowerback -4.51457 3.26237 7.66999
upperback -3.30407 3.95792 2.24879
thorax -0.53413 1.82689 -1.78967
lowerneck -7.67837 -3.49218 -6.96629
upperneck -24.2497 -3.97066 10.7478
head -5.66233 -2.4888 4.79584
rclavicle 1.78906e-015 3.1408e-014
rhumerus 45.4707 16.6459 -54.015
rradius 82.8092
rwrist 3.94729
rhand -22.8084 -33.3096
rfingers 7.12502
rthumb 3.62815 -423.259
lclavicle 1.78906e-015 3.1408e-014
lhumerus -33.6499 11.6645 85.2346
lradius 39.6977
lwrist -21.0005
lhand -12.9648 23.5237
lfingers 7.12502
lthumb 13.1271 53.0905
rfemur -3.04998 1.50204 26.9424
rtibia 38.1247
rfoot -3.83778 0.986404
rtoes 6.62354
lfemur -23.7204 -2.269 -11.681
ltibia 16.4559
lfoot -0.502838 5.34681
ltoes -0.230622
385
root -7.3319 17.9251 3.81238 482.523 -83.3138 -477.468
lowerback -4.4801 3.20884 7.38307
upperback -3.26248 3.90337 2.17215
thorax -0.526698 1.80713 -1.7147
lowerneck -7.59415 -3.40829 -6.95616
upperneck -24.4368 -3.86372 10.7567
head -5.7459 -2.44575 4.8071
rclavicle -1.02623e-014 -3.97569e-014
rhumerus 45.2575 17.0946 -53.3427
rradius 83.4489
rwrist 5.07084
rhand -22.9799 -32.6609
rfingers 7.12502
rthumb 3.46252 -422.613
lclavicle -1.02623e-014 -3.97569e-014
lhumerus -33.3255 10.6454 85.8617
lradius 40.7531
lwrist -20.7028
lhand -13.0593 23.5634
lfingers 7.12502
lthumb 13.036 53.136
rfemur -3.63712 1.32344 26.4459
rtibia 39.7122
rfoot -2.89007 0.750727
rtoes 6.66619
lfemur -23.2439 -2.21406 -12.1792
ltibia 16.7444
lfoot -0.524827 5.05816
ltoes 0.296474
386
root -7.47138 17.927 3.8292 483.978 -83.5155 -479.093
lowerback -4.43876 3.15025 7.09431
upperback -3.21944 3.84254 2.09723
thorax -0.522085 1.78407 -1.63735
lowerneck -7.50608 -3.3229 -6.94361
upperneck -24.6251 -3.75536 10.7621
head -5.831 -2.40211 4.81683
rclavicle -2.68608e-014 -3.22031e-014
rhumerus 45.0708 17.5316 -52.6968
rradius 84.0513
rwrist 6.1302
rhand -23.1166 -32.0038
rfingers 7.12502
rthumb 3.33048 -421.958
lclavicle -2.68608e-014 -3.22031e-014
lhumerus -32.9742 9.59827 86.4653
lradius 41.8487
lwrist -20.433
lhand -13.1666 23.6067
lfingers 7.12502
lthumb 12.9326 53.186
rfemur -4.26467 1.13202 25.9534
rtibia 41.3151
rfoot -1.93639 0.467092
rtoes 6.74488
lfemur -22.7393 -2.16711 -12.6744
ltibia 17.0066
lfoot -0.570257 4.76855
ltoes 0.795974
387
root -7.60992 17.9297 3.8456 485.382 -83.7211 -480.672
lowerback -4.39233 3.08697 6.80469
upperback -3.17532 3.77564 2.02436
thorax -0.519544 1.75781 -1.55769
lowerneck -7.41546 -3.23711 -6.92935
upperneck -24.8108 -3.64681 10.7642
head -5.91607 -2.3583 4.82507
rclavicle 2.11209e-015 -4.41302e-014
rhumerus 44.9126 17.9531 -52.0755
rradius 84.6174
rwrist 7.12562
rhand -23.2219 -31.3397
rfingers 7.12502
rthumb 3.22882 -421.295
lclavicle 2.11209e-015 -4.41302e-014
lhumerus -32.5935 8.52373 87.042
lradius 42.9834
lwrist -20.1916
lhand -13.2823 23.6474
lfingers 7.12502
lthumb 12.8211 53.2337
rfemur -4.93146 0.927291 25.4683
rtibia 42.9252
rfoot -0.987948 0.140892
rtoes 6.85417
lfemur -22.2083 -2.12855 -13.164
ltibia 17.2382
lfoot -0.643292 4.4781
ltoes 1.26149
388
root -7.74743 17.9333 3.86151 486.734 -83.9305 -482.201
lowerback -4.34145 3.01937 6.51487
upperback -3.13095 3.70302 1.95366
thorax -0.519471 1.72849 -1.47591
lowerneck -7.32439 -3.15082 -6.91575
upperneck -24.9918 -3.53738 10.7658
head -5.99999 -2.31386 4.83291
rclavicle -2.35808e-014 -1.43125e-014
rhumerus 44.7857 18.3573 -51.4773
rradius 85.1459
rwrist 8.05633
rhand -23.2938 -30.6705
rfingers 7.12502
rthumb 3.15934 -420.627
lclavicle -2.35808e-014 -1.43125e-014
lhumerus -32.181 7.42287 87.5881
lradius 44.1572
lwrist -19.9767
lhand -13.4086 23.692
lfingers 7.12502
lthumb 12.6993 53.2859
rfemur -5.63683 0.7098 24.9925
rtibia 44.5347
rfoot -0.0565485 -0.221485
rtoes 6.9939
lfemur -21.6532 -2.09836 -13.6462
ltibia 17.4369
lfoot -0.746175 4.18838
ltoes 1.69394
389
root -7.88391 17.9377 3.87688 488.029 -84.1442 -483.675
lowerback -4.28759 2.94821 6.22543
upperback -3.08698 3.62552 1.88477
thorax -0.521514 1.6965 -1.39256
lowerneck -7.23107 -3.06465 -6.90189
upperneck -25.1662 -3.42811 10.7651
head -6.08243 -2.26919 4.83961
rclavicle -1.52567e-014 -1.51076e-014
rhumerus 44.6898 18.7409 -50.9011
rradius 85.6362
rwrist 8.92616
rhand -23.3425 -30.0004
rfingers 7.12502
rthumb 3.11239 -419.957
lclavicle -1.52567e-014 -1.51076e-014
lhumerus -31.7345 6.29576 88.0997
lradius 45.3689
lwrist -19.7872
lhand -13.5492 23.7337
lfingers 7.12502
lthumb 12.5638 53.336
rfemur -6.37848 0.479177 24.5277
rtibia 46.135
rfoot 0.846787 -0.61331
rtoes 7.15469
lfemur -21.0754 -2.07712 -14.1198
ltibia 17.6009
lfoot -0.880411 3.89878
ltoes 2.09503
